<?xml version="1.0"?>
<svg xmlns="http://www.w3.org/2000/svg" id="Layer_1" data-name="Layer 1" viewBox="0 0 512 512" width="100" height="100"><path d="M110.342,384.6h25a6,6,0,1,0,0-12h-25a6,6,0,1,0,0,12Z"/><path d="M165.77,384.6h95a6,6,0,0,0,0-12h-95a6,6,0,0,0,0,12Z"/><path d="M483.5,83.1H377a19.866,19.866,0,0,0-14.142,5.858l-51.816,51.816A50.286,50.286,0,0,1,275.249,155.6H269.5v-19a6,6,0,0,0-6-6h-9.167V106.265a6,6,0,0,0-6-6H218.667a6,6,0,0,0-6,6V130.6H203.5a6,6,0,0,0-6,6v19h-35a6,6,0,0,0-6,6v28a6,6,0,0,0,6,6h35v18H162a6,6,0,0,0-6,6v35H94.5v-6a16.019,16.019,0,0,0-16-16h-54a16.019,16.019,0,0,0-16,16v164a16.019,16.019,0,0,0,16,16h54a16.019,16.019,0,0,0,16-16v-6h278v6.048a16.034,16.034,0,0,0,15.924,16l54,.257h.078a16,16,0,0,0,16-16V248.95a16.018,16.018,0,0,0-16-16h-54a16.018,16.018,0,0,0-16,16V254.6H311v-35a6,6,0,0,0-6-6H269.5v-18h5.749a90.028,90.028,0,0,0,64.077-26.541L385.284,123.1H483.5a20,20,0,0,0,0-40ZM82.5,412.6a4,4,0,0,1-4,4h-54a4,4,0,0,1-4-4v-42h62Zm0-54h-62v-56h62Zm0-68h-62v-42a4,4,0,0,1,4-4h54a4,4,0,0,1,4,4Zm302-41.648a4,4,0,0,1,4-4h54a4,4,0,0,1,4,4V290.6h-62Zm0,53.648h62v56h-62Zm0,68h62v42.3a4,4,0,0,1-4,4h-.02l-54-.257a4.008,4.008,0,0,1-3.981-4ZM224.667,112.265h17.666V130.6H224.667ZM209.5,142.6h48v13h-48Zm-41.5,83h20v29H168Zm111,0h20v29H279Zm93.5,41v128H94.5v-128Zm-115-53h-48v-18h48Zm9.5,12v29H240v-29Zm-39,0v29H200v-29ZM483.5,111.1H382.8a6,6,0,0,0-4.243,1.757l-47.715,47.716A78.108,78.108,0,0,1,275.249,183.6H168.5v-16H275.249a62.208,62.208,0,0,0,44.278-18.34l51.816-51.817A7.948,7.948,0,0,1,377,95.1H483.5a8,8,0,0,1,0,16Z"/></svg>
